<mxfile host="app.diagrams.net" modified="2024-06-23T23:48:26.294Z" agent="Mozilla/5.0 (Windows NT 10.0; Win64; x64) AppleWebKit/537.36 (KHTML, like Gecko) Chrome/126.0.0.0 Safari/537.36" etag="FKGO8FhdxKShHIVaQRy4" version="24.6.2" type="google">
  <diagram name="Page-1" id="B1ZMwvwuazzSA0G3x3kg">
    <mxGraphModel grid="1" page="1" gridSize="10" guides="1" tooltips="1" connect="1" arrows="1" fold="1" pageScale="1" pageWidth="850" pageHeight="1100" math="0" shadow="0">
      <root>
        <mxCell id="0" />
        <mxCell id="1" parent="0" />
        <mxCell id="RkUZRyBxqoQuQxfslXYG-1" value="&lt;b style=&quot;&quot;&gt;&lt;i&gt;&lt;font style=&quot;font-size: 20px;&quot;&gt;Patron Decorator&lt;/font&gt;&lt;/i&gt;&lt;/b&gt;" style="text;html=1;align=center;verticalAlign=middle;resizable=0;points=[];autosize=1;strokeColor=none;fillColor=none;" vertex="1" parent="1">
          <mxGeometry x="40" y="-3400" width="190" height="40" as="geometry" />
        </mxCell>
        <mxCell id="RkUZRyBxqoQuQxfslXYG-36" value="&lt;span style=&quot;font-size: 20px;&quot;&gt;&lt;b&gt;&lt;i&gt;ejercicio_20_FiltrosDeImagenes&lt;/i&gt;&lt;/b&gt;&lt;/span&gt;" style="text;html=1;align=center;verticalAlign=middle;resizable=0;points=[];autosize=1;strokeColor=none;fillColor=none;" vertex="1" parent="1">
          <mxGeometry x="590" y="-2520" width="330" height="40" as="geometry" />
        </mxCell>
        <mxCell id="oTf64u4lON_W1rCtKk3D-47" style="edgeStyle=orthogonalEdgeStyle;rounded=0;orthogonalLoop=1;jettySize=auto;html=1;" edge="1" parent="1">
          <mxGeometry relative="1" as="geometry">
            <mxPoint x="400" y="-3154" as="sourcePoint" />
            <mxPoint x="400" y="-3060" as="targetPoint" />
          </mxGeometry>
        </mxCell>
        <mxCell id="oTf64u4lON_W1rCtKk3D-1" value="PNGFilterLauncher" style="swimlane;fontStyle=0;align=center;verticalAlign=top;childLayout=stackLayout;horizontal=1;startSize=30;horizontalStack=0;resizeParent=1;resizeLast=0;collapsible=1;marginBottom=0;rounded=0;shadow=0;strokeWidth=1;fillColor=#fff2cc;strokeColor=#d6b656;" vertex="1" parent="1">
          <mxGeometry x="260" y="-3340" width="400" height="186" as="geometry">
            <mxRectangle x="110" y="-20" width="160" height="26" as="alternateBounds" />
          </mxGeometry>
        </mxCell>
        <mxCell id="oTf64u4lON_W1rCtKk3D-2" value="- inputFile : File" style="text;align=left;verticalAlign=top;spacingLeft=4;spacingRight=4;overflow=hidden;rotatable=0;points=[[0,0.5],[1,0.5]];portConstraint=eastwest;rounded=0;shadow=0;html=0;" vertex="1" parent="oTf64u4lON_W1rCtKk3D-1">
          <mxGeometry y="30" width="400" height="24" as="geometry" />
        </mxCell>
        <mxCell id="oTf64u4lON_W1rCtKk3D-12" value="- outputFile : File" style="text;align=left;verticalAlign=top;spacingLeft=4;spacingRight=4;overflow=hidden;rotatable=0;points=[[0,0.5],[1,0.5]];portConstraint=eastwest;rounded=0;shadow=0;html=0;" vertex="1" parent="oTf64u4lON_W1rCtKk3D-1">
          <mxGeometry y="54" width="400" height="24" as="geometry" />
        </mxCell>
        <mxCell id="oTf64u4lON_W1rCtKk3D-3" value="" style="line;html=1;strokeWidth=1;align=left;verticalAlign=middle;spacingTop=-1;spacingLeft=3;spacingRight=3;rotatable=0;labelPosition=right;points=[];portConstraint=eastwest;" vertex="1" parent="oTf64u4lON_W1rCtKk3D-1">
          <mxGeometry y="78" width="400" height="8" as="geometry" />
        </mxCell>
        <mxCell id="oTf64u4lON_W1rCtKk3D-4" value="+ &lt;&lt;static&gt;&gt; main( args : String[*] )" style="text;align=left;verticalAlign=top;spacingLeft=4;spacingRight=4;overflow=hidden;rotatable=0;points=[[0,0.5],[1,0.5]];portConstraint=eastwest;rounded=0;shadow=0;html=0;" vertex="1" parent="oTf64u4lON_W1rCtKk3D-1">
          <mxGeometry y="86" width="400" height="24" as="geometry" />
        </mxCell>
        <mxCell id="oTf64u4lON_W1rCtKk3D-51" value="+ &lt;&lt;static&gt;&gt; processArgs( args : String[*] )&#xa;" style="text;align=left;verticalAlign=top;spacingLeft=4;spacingRight=4;overflow=hidden;rotatable=0;points=[[0,0.5],[1,0.5]];portConstraint=eastwest;rounded=0;shadow=0;html=0;" vertex="1" parent="oTf64u4lON_W1rCtKk3D-1">
          <mxGeometry y="110" width="400" height="24" as="geometry" />
        </mxCell>
        <mxCell id="oTf64u4lON_W1rCtKk3D-52" value="+ &lt;&lt;static&gt;&gt; initializeFilters()" style="text;align=left;verticalAlign=top;spacingLeft=4;spacingRight=4;overflow=hidden;rotatable=0;points=[[0,0.5],[1,0.5]];portConstraint=eastwest;rounded=0;shadow=0;html=0;" vertex="1" parent="oTf64u4lON_W1rCtKk3D-1">
          <mxGeometry y="134" width="400" height="24" as="geometry" />
        </mxCell>
        <mxCell id="oTf64u4lON_W1rCtKk3D-14" value="&lt;&lt;abstract&gt;&gt;&#xa;Filter" style="swimlane;fontStyle=0;align=center;verticalAlign=top;childLayout=stackLayout;horizontal=1;startSize=40;horizontalStack=0;resizeParent=1;resizeLast=0;collapsible=1;marginBottom=0;rounded=0;shadow=0;strokeWidth=1;fillColor=#fff2cc;strokeColor=#d6b656;" vertex="1" parent="1">
          <mxGeometry x="280" y="-3060" width="360" height="80" as="geometry">
            <mxRectangle x="110" y="-20" width="160" height="26" as="alternateBounds" />
          </mxGeometry>
        </mxCell>
        <mxCell id="oTf64u4lON_W1rCtKk3D-17" value="" style="line;html=1;strokeWidth=1;align=left;verticalAlign=middle;spacingTop=-1;spacingLeft=3;spacingRight=3;rotatable=0;labelPosition=right;points=[];portConstraint=eastwest;" vertex="1" parent="oTf64u4lON_W1rCtKk3D-14">
          <mxGeometry y="40" width="360" height="8" as="geometry" />
        </mxCell>
        <mxCell id="oTf64u4lON_W1rCtKk3D-18" value="+ &lt;&lt;abstract&gt;&gt; filter( image : BufferedImage ) : BufferedImage " style="text;align=left;verticalAlign=top;spacingLeft=4;spacingRight=4;overflow=hidden;rotatable=0;points=[[0,0.5],[1,0.5]];portConstraint=eastwest;rounded=0;shadow=0;html=0;" vertex="1" parent="oTf64u4lON_W1rCtKk3D-14">
          <mxGeometry y="48" width="360" height="24" as="geometry" />
        </mxCell>
        <mxCell id="oTf64u4lON_W1rCtKk3D-26" style="edgeStyle=orthogonalEdgeStyle;rounded=0;orthogonalLoop=1;jettySize=auto;html=1;endSize=12;startSize=12;endArrow=block;endFill=0;" edge="1" parent="1" source="oTf64u4lON_W1rCtKk3D-23">
          <mxGeometry relative="1" as="geometry">
            <mxPoint x="460" y="-2980" as="targetPoint" />
            <Array as="points">
              <mxPoint x="460" y="-2860" />
            </Array>
          </mxGeometry>
        </mxCell>
        <mxCell id="oTf64u4lON_W1rCtKk3D-23" value="Artifacter" style="swimlane;fontStyle=0;align=center;verticalAlign=top;childLayout=stackLayout;horizontal=1;startSize=30;horizontalStack=0;resizeParent=1;resizeLast=0;collapsible=1;marginBottom=0;rounded=0;shadow=0;strokeWidth=1;fillColor=#fff2cc;strokeColor=#d6b656;" vertex="1" parent="1">
          <mxGeometry x="120" y="-2900" width="280" height="80" as="geometry">
            <mxRectangle x="110" y="-20" width="160" height="26" as="alternateBounds" />
          </mxGeometry>
        </mxCell>
        <mxCell id="oTf64u4lON_W1rCtKk3D-24" value="" style="line;html=1;strokeWidth=1;align=left;verticalAlign=middle;spacingTop=-1;spacingLeft=3;spacingRight=3;rotatable=0;labelPosition=right;points=[];portConstraint=eastwest;" vertex="1" parent="oTf64u4lON_W1rCtKk3D-23">
          <mxGeometry y="30" width="280" height="8" as="geometry" />
        </mxCell>
        <mxCell id="oTf64u4lON_W1rCtKk3D-25" value="+ filter( image : BufferedImage ) : BufferedImage " style="text;align=left;verticalAlign=top;spacingLeft=4;spacingRight=4;overflow=hidden;rotatable=0;points=[[0,0.5],[1,0.5]];portConstraint=eastwest;rounded=0;shadow=0;html=0;" vertex="1" parent="oTf64u4lON_W1rCtKk3D-23">
          <mxGeometry y="38" width="280" height="24" as="geometry" />
        </mxCell>
        <mxCell id="oTf64u4lON_W1rCtKk3D-46" style="edgeStyle=orthogonalEdgeStyle;rounded=0;orthogonalLoop=1;jettySize=auto;html=1;endSize=12;startSize=12;endArrow=block;endFill=0;" edge="1" parent="1" source="oTf64u4lON_W1rCtKk3D-27">
          <mxGeometry relative="1" as="geometry">
            <mxPoint x="460" y="-2980" as="targetPoint" />
            <Array as="points">
              <mxPoint x="460" y="-2620" />
            </Array>
          </mxGeometry>
        </mxCell>
        <mxCell id="oTf64u4lON_W1rCtKk3D-27" value="Rainbow" style="swimlane;fontStyle=0;align=center;verticalAlign=top;childLayout=stackLayout;horizontal=1;startSize=30;horizontalStack=0;resizeParent=1;resizeLast=0;collapsible=1;marginBottom=0;rounded=0;shadow=0;strokeWidth=1;fillColor=#fff2cc;strokeColor=#d6b656;" vertex="1" parent="1">
          <mxGeometry x="120" y="-2660" width="280" height="80" as="geometry">
            <mxRectangle x="110" y="-20" width="160" height="26" as="alternateBounds" />
          </mxGeometry>
        </mxCell>
        <mxCell id="oTf64u4lON_W1rCtKk3D-28" value="" style="line;html=1;strokeWidth=1;align=left;verticalAlign=middle;spacingTop=-1;spacingLeft=3;spacingRight=3;rotatable=0;labelPosition=right;points=[];portConstraint=eastwest;" vertex="1" parent="oTf64u4lON_W1rCtKk3D-27">
          <mxGeometry y="30" width="280" height="8" as="geometry" />
        </mxCell>
        <mxCell id="oTf64u4lON_W1rCtKk3D-29" value="+ filter( image : BufferedImage ) : BufferedImage " style="text;align=left;verticalAlign=top;spacingLeft=4;spacingRight=4;overflow=hidden;rotatable=0;points=[[0,0.5],[1,0.5]];portConstraint=eastwest;rounded=0;shadow=0;html=0;" vertex="1" parent="oTf64u4lON_W1rCtKk3D-27">
          <mxGeometry y="38" width="280" height="24" as="geometry" />
        </mxCell>
        <mxCell id="oTf64u4lON_W1rCtKk3D-44" style="edgeStyle=orthogonalEdgeStyle;rounded=0;orthogonalLoop=1;jettySize=auto;html=1;endSize=12;startSize=12;endArrow=block;endFill=0;" edge="1" parent="1" source="oTf64u4lON_W1rCtKk3D-30">
          <mxGeometry relative="1" as="geometry">
            <mxPoint x="460" y="-2980" as="targetPoint" />
            <Array as="points">
              <mxPoint x="460" y="-2740" />
            </Array>
          </mxGeometry>
        </mxCell>
        <mxCell id="oTf64u4lON_W1rCtKk3D-30" value="Dull" style="swimlane;fontStyle=0;align=center;verticalAlign=top;childLayout=stackLayout;horizontal=1;startSize=30;horizontalStack=0;resizeParent=1;resizeLast=0;collapsible=1;marginBottom=0;rounded=0;shadow=0;strokeWidth=1;fillColor=#fff2cc;strokeColor=#d6b656;" vertex="1" parent="1">
          <mxGeometry x="120" y="-2780" width="280" height="80" as="geometry">
            <mxRectangle x="110" y="-20" width="160" height="26" as="alternateBounds" />
          </mxGeometry>
        </mxCell>
        <mxCell id="oTf64u4lON_W1rCtKk3D-31" value="" style="line;html=1;strokeWidth=1;align=left;verticalAlign=middle;spacingTop=-1;spacingLeft=3;spacingRight=3;rotatable=0;labelPosition=right;points=[];portConstraint=eastwest;" vertex="1" parent="oTf64u4lON_W1rCtKk3D-30">
          <mxGeometry y="30" width="280" height="8" as="geometry" />
        </mxCell>
        <mxCell id="oTf64u4lON_W1rCtKk3D-32" value="+ filter( image : BufferedImage ) : BufferedImage " style="text;align=left;verticalAlign=top;spacingLeft=4;spacingRight=4;overflow=hidden;rotatable=0;points=[[0,0.5],[1,0.5]];portConstraint=eastwest;rounded=0;shadow=0;html=0;" vertex="1" parent="oTf64u4lON_W1rCtKk3D-30">
          <mxGeometry y="38" width="280" height="24" as="geometry" />
        </mxCell>
        <mxCell id="oTf64u4lON_W1rCtKk3D-42" style="edgeStyle=orthogonalEdgeStyle;rounded=0;orthogonalLoop=1;jettySize=auto;html=1;endSize=12;startSize=12;endArrow=block;endFill=0;" edge="1" parent="1" source="oTf64u4lON_W1rCtKk3D-33">
          <mxGeometry relative="1" as="geometry">
            <mxPoint x="460" y="-2980" as="targetPoint" />
            <Array as="points">
              <mxPoint x="460" y="-2860" />
            </Array>
          </mxGeometry>
        </mxCell>
        <mxCell id="oTf64u4lON_W1rCtKk3D-33" value="Repeater" style="swimlane;fontStyle=0;align=center;verticalAlign=top;childLayout=stackLayout;horizontal=1;startSize=30;horizontalStack=0;resizeParent=1;resizeLast=0;collapsible=1;marginBottom=0;rounded=0;shadow=0;strokeWidth=1;fillColor=#fff2cc;strokeColor=#d6b656;" vertex="1" parent="1">
          <mxGeometry x="520" y="-2900" width="280" height="80" as="geometry">
            <mxRectangle x="110" y="-20" width="160" height="26" as="alternateBounds" />
          </mxGeometry>
        </mxCell>
        <mxCell id="oTf64u4lON_W1rCtKk3D-34" value="" style="line;html=1;strokeWidth=1;align=left;verticalAlign=middle;spacingTop=-1;spacingLeft=3;spacingRight=3;rotatable=0;labelPosition=right;points=[];portConstraint=eastwest;" vertex="1" parent="oTf64u4lON_W1rCtKk3D-33">
          <mxGeometry y="30" width="280" height="8" as="geometry" />
        </mxCell>
        <mxCell id="oTf64u4lON_W1rCtKk3D-35" value="+ filter( image : BufferedImage ) : BufferedImage " style="text;align=left;verticalAlign=top;spacingLeft=4;spacingRight=4;overflow=hidden;rotatable=0;points=[[0,0.5],[1,0.5]];portConstraint=eastwest;rounded=0;shadow=0;html=0;" vertex="1" parent="oTf64u4lON_W1rCtKk3D-33">
          <mxGeometry y="38" width="280" height="24" as="geometry" />
        </mxCell>
        <mxCell id="oTf64u4lON_W1rCtKk3D-45" style="edgeStyle=orthogonalEdgeStyle;rounded=0;orthogonalLoop=1;jettySize=auto;html=1;endSize=12;startSize=12;endArrow=block;endFill=0;" edge="1" parent="1" source="oTf64u4lON_W1rCtKk3D-36">
          <mxGeometry relative="1" as="geometry">
            <mxPoint x="460" y="-2980" as="targetPoint" />
            <Array as="points">
              <mxPoint x="460" y="-2620" />
            </Array>
          </mxGeometry>
        </mxCell>
        <mxCell id="oTf64u4lON_W1rCtKk3D-36" value="RGBShiftRepeater" style="swimlane;fontStyle=0;align=center;verticalAlign=top;childLayout=stackLayout;horizontal=1;startSize=30;horizontalStack=0;resizeParent=1;resizeLast=0;collapsible=1;marginBottom=0;rounded=0;shadow=0;strokeWidth=1;fillColor=#fff2cc;strokeColor=#d6b656;" vertex="1" parent="1">
          <mxGeometry x="520" y="-2660" width="280" height="80" as="geometry">
            <mxRectangle x="110" y="-20" width="160" height="26" as="alternateBounds" />
          </mxGeometry>
        </mxCell>
        <mxCell id="oTf64u4lON_W1rCtKk3D-37" value="" style="line;html=1;strokeWidth=1;align=left;verticalAlign=middle;spacingTop=-1;spacingLeft=3;spacingRight=3;rotatable=0;labelPosition=right;points=[];portConstraint=eastwest;" vertex="1" parent="oTf64u4lON_W1rCtKk3D-36">
          <mxGeometry y="30" width="280" height="8" as="geometry" />
        </mxCell>
        <mxCell id="oTf64u4lON_W1rCtKk3D-38" value="+ filter( image : BufferedImage ) : BufferedImage " style="text;align=left;verticalAlign=top;spacingLeft=4;spacingRight=4;overflow=hidden;rotatable=0;points=[[0,0.5],[1,0.5]];portConstraint=eastwest;rounded=0;shadow=0;html=0;" vertex="1" parent="oTf64u4lON_W1rCtKk3D-36">
          <mxGeometry y="38" width="280" height="24" as="geometry" />
        </mxCell>
        <mxCell id="oTf64u4lON_W1rCtKk3D-43" style="edgeStyle=orthogonalEdgeStyle;rounded=0;orthogonalLoop=1;jettySize=auto;html=1;endSize=12;startSize=12;endArrow=block;endFill=0;" edge="1" parent="1" source="oTf64u4lON_W1rCtKk3D-39">
          <mxGeometry relative="1" as="geometry">
            <mxPoint x="460" y="-2980" as="targetPoint" />
            <Array as="points">
              <mxPoint x="460" y="-2740" />
            </Array>
          </mxGeometry>
        </mxCell>
        <mxCell id="oTf64u4lON_W1rCtKk3D-39" value="RGBShifter" style="swimlane;fontStyle=0;align=center;verticalAlign=top;childLayout=stackLayout;horizontal=1;startSize=30;horizontalStack=0;resizeParent=1;resizeLast=0;collapsible=1;marginBottom=0;rounded=0;shadow=0;strokeWidth=1;fillColor=#fff2cc;strokeColor=#d6b656;" vertex="1" parent="1">
          <mxGeometry x="520" y="-2780" width="280" height="80" as="geometry">
            <mxRectangle x="110" y="-20" width="160" height="26" as="alternateBounds" />
          </mxGeometry>
        </mxCell>
        <mxCell id="oTf64u4lON_W1rCtKk3D-40" value="" style="line;html=1;strokeWidth=1;align=left;verticalAlign=middle;spacingTop=-1;spacingLeft=3;spacingRight=3;rotatable=0;labelPosition=right;points=[];portConstraint=eastwest;" vertex="1" parent="oTf64u4lON_W1rCtKk3D-39">
          <mxGeometry y="30" width="280" height="8" as="geometry" />
        </mxCell>
        <mxCell id="oTf64u4lON_W1rCtKk3D-41" value="+ filter( image : BufferedImage ) : BufferedImage " style="text;align=left;verticalAlign=top;spacingLeft=4;spacingRight=4;overflow=hidden;rotatable=0;points=[[0,0.5],[1,0.5]];portConstraint=eastwest;rounded=0;shadow=0;html=0;" vertex="1" parent="oTf64u4lON_W1rCtKk3D-39">
          <mxGeometry y="38" width="280" height="24" as="geometry" />
        </mxCell>
        <mxCell id="oTf64u4lON_W1rCtKk3D-48" value="filters" style="text;html=1;align=center;verticalAlign=middle;whiteSpace=wrap;rounded=0;fontSize=14;" vertex="1" parent="1">
          <mxGeometry x="350" y="-3117.5" width="50" height="25" as="geometry" />
        </mxCell>
        <mxCell id="oTf64u4lON_W1rCtKk3D-49" value="*" style="text;html=1;align=center;verticalAlign=middle;whiteSpace=wrap;rounded=0;fontSize=22;" vertex="1" parent="1">
          <mxGeometry x="400" y="-3117.5" width="30" height="37.5" as="geometry" />
        </mxCell>
        <mxCell id="oTf64u4lON_W1rCtKk3D-53" style="edgeStyle=orthogonalEdgeStyle;rounded=0;orthogonalLoop=1;jettySize=auto;html=1;" edge="1" parent="1">
          <mxGeometry relative="1" as="geometry">
            <mxPoint x="520" y="-3154" as="sourcePoint" />
            <mxPoint x="520" y="-3060" as="targetPoint" />
          </mxGeometry>
        </mxCell>
        <mxCell id="oTf64u4lON_W1rCtKk3D-54" value="activeFilters" style="text;html=1;align=center;verticalAlign=middle;whiteSpace=wrap;rounded=0;fontSize=14;" vertex="1" parent="1">
          <mxGeometry x="440" y="-3117.5" width="80" height="25" as="geometry" />
        </mxCell>
        <mxCell id="oTf64u4lON_W1rCtKk3D-55" value="*" style="text;html=1;align=center;verticalAlign=middle;whiteSpace=wrap;rounded=0;fontSize=22;" vertex="1" parent="1">
          <mxGeometry x="520" y="-3117.5" width="30" height="37.5" as="geometry" />
        </mxCell>
        <mxCell id="oTf64u4lON_W1rCtKk3D-59" value="&lt;b style=&quot;font-size: 16px;&quot;&gt;&lt;i style=&quot;font-size: 16px;&quot;&gt;Concrete Decorator&lt;/i&gt;&lt;/b&gt;" style="text;html=1;align=center;verticalAlign=middle;whiteSpace=wrap;rounded=0;fontSize=16;" vertex="1" parent="1">
          <mxGeometry x="120" y="-2920" width="160" height="20" as="geometry" />
        </mxCell>
        <mxCell id="oTf64u4lON_W1rCtKk3D-60" value="&lt;b style=&quot;font-size: 16px;&quot;&gt;&lt;i style=&quot;font-size: 16px;&quot;&gt;Concrete Decorator&lt;/i&gt;&lt;/b&gt;" style="text;html=1;align=center;verticalAlign=middle;whiteSpace=wrap;rounded=0;fontSize=16;" vertex="1" parent="1">
          <mxGeometry x="520" y="-2920" width="160" height="20" as="geometry" />
        </mxCell>
        <mxCell id="oTf64u4lON_W1rCtKk3D-61" value="&lt;b style=&quot;font-size: 16px;&quot;&gt;&lt;i style=&quot;font-size: 16px;&quot;&gt;Concrete Decorator&lt;/i&gt;&lt;/b&gt;" style="text;html=1;align=center;verticalAlign=middle;whiteSpace=wrap;rounded=0;fontSize=16;" vertex="1" parent="1">
          <mxGeometry x="120" y="-2800" width="160" height="20" as="geometry" />
        </mxCell>
        <mxCell id="oTf64u4lON_W1rCtKk3D-62" value="&lt;b style=&quot;font-size: 16px;&quot;&gt;&lt;i style=&quot;font-size: 16px;&quot;&gt;Concrete Decorator&lt;/i&gt;&lt;/b&gt;" style="text;html=1;align=center;verticalAlign=middle;whiteSpace=wrap;rounded=0;fontSize=16;" vertex="1" parent="1">
          <mxGeometry x="520" y="-2800" width="160" height="20" as="geometry" />
        </mxCell>
        <mxCell id="oTf64u4lON_W1rCtKk3D-63" value="&lt;b style=&quot;font-size: 16px;&quot;&gt;&lt;i style=&quot;font-size: 16px;&quot;&gt;Concrete Decorator&lt;/i&gt;&lt;/b&gt;" style="text;html=1;align=center;verticalAlign=middle;whiteSpace=wrap;rounded=0;fontSize=16;" vertex="1" parent="1">
          <mxGeometry x="120" y="-2680" width="160" height="20" as="geometry" />
        </mxCell>
        <mxCell id="oTf64u4lON_W1rCtKk3D-64" value="&lt;b style=&quot;font-size: 16px;&quot;&gt;&lt;i style=&quot;font-size: 16px;&quot;&gt;Concrete Decorator&lt;/i&gt;&lt;/b&gt;" style="text;html=1;align=center;verticalAlign=middle;whiteSpace=wrap;rounded=0;fontSize=16;" vertex="1" parent="1">
          <mxGeometry x="520" y="-2680" width="160" height="20" as="geometry" />
        </mxCell>
        <mxCell id="oTf64u4lON_W1rCtKk3D-65" value="&lt;b style=&quot;font-size: 16px;&quot;&gt;&lt;i style=&quot;font-size: 16px;&quot;&gt;Decorator&lt;/i&gt;&lt;/b&gt;" style="text;html=1;align=center;verticalAlign=middle;whiteSpace=wrap;rounded=0;fontSize=16;" vertex="1" parent="1">
          <mxGeometry x="280" y="-3080" width="90" height="20" as="geometry" />
        </mxCell>
        <mxCell id="oTf64u4lON_W1rCtKk3D-66" value="&lt;b&gt; a. ¿El objetivo del patrón se distingue en el diseño? Elabore en un párrafo.&lt;/b&gt;&lt;div&gt;&lt;br&gt;&lt;/div&gt;&lt;div&gt;&lt;br style=&quot;font-size: 20px;&quot;&gt;&lt;b&gt; b. ¿La estructura del proyecto coincide con la estructura y los participantes del patrón? Elabore en un párrafo.&lt;/b&gt;&lt;/div&gt;&lt;div&gt;&lt;br&gt;&lt;/div&gt;&lt;div&gt;&lt;br style=&quot;font-size: 20px;&quot;&gt;&lt;b&gt; c. En el caso que el patrón coincida, puede distinguir un “smell” o algo que se aleja del patrón presentado en el libro?&lt;/b&gt;&lt;/div&gt;" style="text;html=1;align=left;verticalAlign=middle;whiteSpace=wrap;rounded=0;fontSize=20;" vertex="1" parent="1">
          <mxGeometry x="840" y="-3228.75" width="810" height="260" as="geometry" />
        </mxCell>
      </root>
    </mxGraphModel>
  </diagram>
</mxfile>
